# xmcd
#
# Track frame offsets:
#	150
#	22967
#	44155
#	79835
#
# Disc length: 1499 seconds
#
# Revision: 1
# Processed by: cddbd v1.5PL3 Copyright (c) Steve Scherf et al.
# Submitted via: CDex 1.50Beta5
#
DISCID=2b05d904
DTITLE=鈴木あみ - THANK YOU 4 EVERY DAY EVERY BODY
DYEAR=1900
DGENRE=Pop
TTITLE0=THANK YOU 4 EVERY DAY EVERY BODY
TTITLE1=I really wanna tell
TTITLE2=THANK YOU 4 EVERY DAY EVERY BODY (club collapse remix)
TTITLE3=I really wanna tell (confession remix)
EXTD=
EXTT0=
EXTT1=
EXTT2=
EXTT3=
PLAYORDER=
